<svg width="98" height="24" viewBox="0 0 98 24" fill="none" xmlns="http://www.w3.org/2000/svg">
<path d="M6.16797 18.849C6.41548 18.0252 6.92194 17.3032 7.61222 16.79C8.30249 16.2768 9.13982 15.9997 9.99997 16H14C14.8612 15.9997 15.6996 16.2774 16.3904 16.7918C17.0811 17.3062 17.5874 18.0298 17.834 18.855M21 12C21 16.9706 16.9706 21 12 21C7.02944 21 3 16.9706 3 12C3 7.02944 7.02944 3 12 3C16.9706 3 21 7.02944 21 12ZM15 10C15 11.6569 13.6569 13 12 13C10.3431 13 9 11.6569 9 10C9 8.34315 10.3431 7 12 7C13.6569 7 15 8.34315 15 10Z" stroke="#0F0F10" stroke-width="1.5" stroke-linecap="round" stroke-linejoin="round"/>
<path d="M38.1104 11.9893C38.1104 12.7594 38.0124 13.4613 37.8164 14.0947C37.6204 14.7236 37.3288 15.266 36.9414 15.7217C36.5586 16.1729 36.0778 16.5215 35.499 16.7676C34.9248 17.0137 34.2526 17.1367 33.4824 17.1367C32.6986 17.1367 32.015 17.0137 31.4316 16.7676C30.8529 16.5215 30.3721 16.1706 29.9893 15.7148C29.6064 15.2591 29.3193 14.7145 29.1279 14.0811C28.9411 13.4476 28.8477 12.7458 28.8477 11.9756C28.8477 10.9502 29.0163 10.0524 29.3535 9.28223C29.6908 8.51204 30.2035 7.91504 30.8916 7.49121C31.5843 7.06283 32.4548 6.84863 33.5029 6.84863C34.5146 6.84863 35.3623 7.06055 36.0459 7.48438C36.7295 7.9082 37.2445 8.50521 37.5908 9.27539C37.9372 10.041 38.1104 10.9456 38.1104 11.9893ZM30.3174 11.9893C30.3174 12.8005 30.429 13.5023 30.6523 14.0947C30.8802 14.6826 31.2266 15.1383 31.6914 15.4619C32.1608 15.7809 32.7578 15.9404 33.4824 15.9404C34.2161 15.9404 34.8154 15.7809 35.2803 15.4619C35.7451 15.1383 36.0869 14.6826 36.3057 14.0947C36.5244 13.5023 36.6338 12.8005 36.6338 11.9893C36.6338 10.7588 36.3831 9.7972 35.8818 9.10449C35.3805 8.40723 34.5876 8.05859 33.5029 8.05859C32.7738 8.05859 32.1745 8.2181 31.7051 8.53711C31.2357 8.85156 30.887 9.30273 30.6592 9.89062C30.4313 10.474 30.3174 11.1735 30.3174 11.9893ZM39.7168 12.4814C39.7168 11.4014 39.8285 10.4808 40.0518 9.71973C40.2751 8.9541 40.6237 8.34115 41.0977 7.88086C41.5716 7.41602 42.1868 7.09928 42.9434 6.93066C43.5039 6.78939 44.0713 6.66862 44.6455 6.56836C45.2243 6.4681 45.7962 6.37695 46.3613 6.29492L46.5732 7.49805C46.2952 7.53451 46.0036 7.5778 45.6982 7.62793C45.3929 7.6735 45.0876 7.72135 44.7822 7.77148C44.4769 7.82161 44.1852 7.87402 43.9072 7.92871C43.6338 7.9834 43.39 8.04036 43.1758 8.09961C42.7702 8.19531 42.4238 8.35938 42.1367 8.5918C41.8496 8.82422 41.624 9.15462 41.46 9.58301C41.3005 10.0068 41.2025 10.5583 41.166 11.2373H41.2549C41.387 11.0459 41.5671 10.8545 41.7949 10.6631C42.0228 10.4671 42.2962 10.3053 42.6152 10.1777C42.9342 10.0501 43.2965 9.98633 43.7021 9.98633C44.3402 9.98633 44.8757 10.123 45.3086 10.3965C45.7461 10.6699 46.0765 11.0596 46.2998 11.5654C46.5277 12.0667 46.6416 12.6637 46.6416 13.3564C46.6416 14.1859 46.4958 14.8831 46.2041 15.4482C45.917 16.0088 45.5137 16.4303 44.9941 16.7129C44.4746 16.9954 43.8662 17.1367 43.1689 17.1367C42.6312 17.1367 42.1481 17.0342 41.7197 16.8291C41.2959 16.624 40.9336 16.3232 40.6328 15.9268C40.3366 15.5257 40.1087 15.0381 39.9492 14.4639C39.7943 13.8851 39.7168 13.2243 39.7168 12.4814ZM43.2646 16.0088C43.6657 16.0088 44.0098 15.9245 44.2969 15.7559C44.5885 15.5827 44.8141 15.3115 44.9736 14.9424C45.1331 14.5732 45.2129 14.0879 45.2129 13.4863C45.2129 12.7389 45.0739 12.1533 44.7959 11.7295C44.5179 11.3011 44.069 11.0869 43.4492 11.0869C43.0618 11.0869 42.7087 11.1712 42.3896 11.3398C42.0752 11.5039 41.8086 11.6999 41.5898 11.9277C41.3711 12.1556 41.2139 12.3584 41.1182 12.5361C41.1182 12.9736 41.1501 13.3997 41.2139 13.8145C41.2822 14.2246 41.3939 14.596 41.5488 14.9287C41.7083 15.2614 41.9271 15.5257 42.2051 15.7217C42.4876 15.9131 42.8408 16.0088 43.2646 16.0088ZM55.125 13.2197C55.125 13.8395 55.043 14.3932 54.8789 14.8809C54.7194 15.3639 54.4847 15.7741 54.1748 16.1113C53.8695 16.444 53.5003 16.6992 53.0674 16.877C52.6344 17.0501 52.1445 17.1367 51.5977 17.1367C51.0872 17.1367 50.6178 17.0501 50.1895 16.877C49.7656 16.6992 49.3988 16.444 49.0889 16.1113C48.779 15.7741 48.5397 15.3639 48.3711 14.8809C48.2025 14.3932 48.1182 13.8395 48.1182 13.2197C48.1182 12.3949 48.2594 11.693 48.542 11.1143C48.8245 10.5309 49.2279 10.0889 49.752 9.78809C50.2806 9.48275 50.9095 9.33008 51.6387 9.33008C52.3314 9.33008 52.9398 9.48275 53.4639 9.78809C53.988 10.0934 54.3958 10.5355 54.6875 11.1143C54.9792 11.693 55.125 12.3949 55.125 13.2197ZM49.5264 13.2197C49.5264 13.7985 49.5993 14.2975 49.7451 14.7168C49.8955 15.1315 50.1234 15.4505 50.4287 15.6738C50.7386 15.8971 51.1374 16.0088 51.625 16.0088C52.1035 16.0088 52.4977 15.8971 52.8076 15.6738C53.1175 15.4505 53.3454 15.1315 53.4912 14.7168C53.637 14.2975 53.71 13.7985 53.71 13.2197C53.71 12.6455 53.637 12.1533 53.4912 11.7432C53.3454 11.333 53.1175 11.0186 52.8076 10.7998C52.5023 10.5811 52.1035 10.4717 51.6113 10.4717C50.8913 10.4717 50.3626 10.7132 50.0254 11.1963C49.6927 11.6748 49.5264 12.3493 49.5264 13.2197ZM69.0088 9.4668V17H67.7578V12.3994C67.7578 12.1579 67.7624 11.9163 67.7715 11.6748C67.7852 11.4287 67.8011 11.1895 67.8193 10.957H67.7783L65.3857 17H64.2715L61.9131 10.9502H61.8721C61.8903 11.1826 61.904 11.4219 61.9131 11.668C61.9222 11.9095 61.9268 12.1693 61.9268 12.4473V17H60.6689V9.4668H62.5488L64.8389 15.3594L67.1631 9.4668H69.0088ZM72.7139 9.4668V12.5635H76.5762V9.4668H77.9434V17H76.5762V13.6709H72.7139V17H71.333V9.4668H72.7139ZM83.2549 9.33008C83.9111 9.33008 84.474 9.47135 84.9434 9.75391C85.4128 10.0319 85.7728 10.4261 86.0234 10.9365C86.2741 11.4469 86.3994 12.0485 86.3994 12.7412V13.5205H81.2861C81.2998 14.3271 81.5072 14.9469 81.9082 15.3799C82.3092 15.8083 82.8721 16.0225 83.5967 16.0225C84.0752 16.0225 84.5013 15.9769 84.875 15.8857C85.2487 15.7946 85.6361 15.6602 86.0371 15.4824V16.6377C85.6589 16.8109 85.2783 16.9362 84.8955 17.0137C84.5173 17.0957 84.0638 17.1367 83.5352 17.1367C82.806 17.1367 82.1657 16.9909 81.6143 16.6992C81.0674 16.4076 80.6413 15.9769 80.3359 15.4072C80.0306 14.833 79.8779 14.1266 79.8779 13.2881C79.8779 12.4587 80.0169 11.75 80.2949 11.1621C80.5729 10.5697 80.9648 10.1162 81.4707 9.80176C81.9766 9.4873 82.5713 9.33008 83.2549 9.33008ZM83.248 10.3965C82.6921 10.3965 82.2454 10.5788 81.9082 10.9434C81.571 11.3034 81.3727 11.8206 81.3135 12.4951H85.0186C85.014 12.0804 84.9479 11.7158 84.8203 11.4014C84.6927 11.0869 84.499 10.8408 84.2393 10.6631C83.984 10.4854 83.6536 10.3965 83.248 10.3965Z" fill="#0F0F10"/>
<circle cx="95" cy="12" r="3" fill="#4263EB"/>
</svg>
