<svg width="135" height="42" viewBox="0 0 135 42" fill="none" xmlns="http://www.w3.org/2000/svg">
<rect width="135" height="42" rx="4" fill="#4263EB"/>
<path d="M32.2188 27H30.8906V21.6172H24.8906V27H23.5625V15.5781H24.8906V20.4453H30.8906V15.5781H32.2188V27ZM38.3672 18.2969C39.388 18.2969 40.1458 18.526 40.6406 18.9844C41.1354 19.4427 41.3828 20.1745 41.3828 21.1797V27H40.4375L40.1875 25.7344H40.125C39.8854 26.0469 39.6354 26.3099 39.375 26.5234C39.1146 26.7318 38.8125 26.8906 38.4688 27C38.1302 27.1042 37.7135 27.1562 37.2188 27.1562C36.6979 27.1562 36.2344 27.0651 35.8281 26.8828C35.4271 26.7005 35.1094 26.4245 34.875 26.0547C34.6458 25.6849 34.5312 25.2161 34.5312 24.6484C34.5312 23.7943 34.8698 23.138 35.5469 22.6797C36.224 22.2214 37.2552 21.9714 38.6406 21.9297L40.1172 21.8672V21.3438C40.1172 20.6042 39.9583 20.0859 39.6406 19.7891C39.3229 19.4922 38.875 19.3438 38.2969 19.3438C37.849 19.3438 37.4219 19.4089 37.0156 19.5391C36.6094 19.6693 36.224 19.8229 35.8594 20L35.4609 19.0156C35.8464 18.8177 36.2891 18.6484 36.7891 18.5078C37.2891 18.3672 37.8151 18.2969 38.3672 18.2969ZM40.1016 22.7812L38.7969 22.8359C37.7292 22.8776 36.9766 23.0521 36.5391 23.3594C36.1016 23.6667 35.8828 24.1016 35.8828 24.6641C35.8828 25.1536 36.0312 25.5156 36.3281 25.75C36.625 25.9844 37.0182 26.1016 37.5078 26.1016C38.2682 26.1016 38.8906 25.8906 39.375 25.4688C39.8594 25.0469 40.1016 24.4141 40.1016 23.5703V22.7812ZM53.4062 18.4375V19.5391H49.5156V27H48.2109V18.4375H53.4062ZM61.5391 27H60.2188V19.5234H57.6172C57.513 20.8724 57.3802 22.0286 57.2188 22.9922C57.0625 23.9505 56.8646 24.7344 56.625 25.3438C56.3906 25.9479 56.1042 26.3932 55.7656 26.6797C55.4323 26.9609 55.0339 27.1016 54.5703 27.1016C54.4297 27.1016 54.2969 27.0938 54.1719 27.0781C54.0469 27.0625 53.9401 27.0365 53.8516 27V26.0156C53.9193 26.0365 53.9896 26.0521 54.0625 26.0625C54.1406 26.0729 54.2214 26.0781 54.3047 26.0781C54.5391 26.0781 54.7526 25.9818 54.9453 25.7891C55.1432 25.5911 55.3203 25.2943 55.4766 24.8984C55.638 24.5026 55.7812 24.0026 55.9062 23.3984C56.0312 22.7891 56.1406 22.0729 56.2344 21.25C56.3333 20.4219 56.4193 19.4844 56.4922 18.4375H61.5391V27ZM67.4766 18.2969C68.4974 18.2969 69.2552 18.526 69.75 18.9844C70.2448 19.4427 70.4922 20.1745 70.4922 21.1797V27H69.5469L69.2969 25.7344H69.2344C68.9948 26.0469 68.7448 26.3099 68.4844 26.5234C68.224 26.7318 67.9219 26.8906 67.5781 27C67.2396 27.1042 66.8229 27.1562 66.3281 27.1562C65.8073 27.1562 65.3438 27.0651 64.9375 26.8828C64.5365 26.7005 64.2188 26.4245 63.9844 26.0547C63.7552 25.6849 63.6406 25.2161 63.6406 24.6484C63.6406 23.7943 63.9792 23.138 64.6562 22.6797C65.3333 22.2214 66.3646 21.9714 67.75 21.9297L69.2266 21.8672V21.3438C69.2266 20.6042 69.0677 20.0859 68.75 19.7891C68.4323 19.4922 67.9844 19.3438 67.4062 19.3438C66.9583 19.3438 66.5312 19.4089 66.125 19.5391C65.7188 19.6693 65.3333 19.8229 64.9688 20L64.5703 19.0156C64.9557 18.8177 65.3984 18.6484 65.8984 18.5078C66.3984 18.3672 66.9245 18.2969 67.4766 18.2969ZM69.2109 22.7812L67.9062 22.8359C66.8385 22.8776 66.0859 23.0521 65.6484 23.3594C65.2109 23.6667 64.9922 24.1016 64.9922 24.6641C64.9922 25.1536 65.1406 25.5156 65.4375 25.75C65.7344 25.9844 66.1276 26.1016 66.6172 26.1016C67.3776 26.1016 68 25.8906 68.4844 25.4688C68.9688 25.0469 69.2109 24.4141 69.2109 23.5703V22.7812ZM79.9688 20.5859C79.9688 21.1224 79.8125 21.5417 79.5 21.8438C79.1875 22.1406 78.7839 22.3411 78.2891 22.4453V22.5078C78.8255 22.5807 79.2865 22.7734 79.6719 23.0859C80.0625 23.3932 80.2578 23.8646 80.2578 24.5C80.2578 24.9896 80.1406 25.4219 79.9062 25.7969C79.6719 26.1719 79.3047 26.4661 78.8047 26.6797C78.3047 26.8932 77.6536 27 76.8516 27H73.1641V18.4375H76.8203C77.4349 18.4375 77.9766 18.5078 78.4453 18.6484C78.9193 18.7839 79.2917 19.0078 79.5625 19.3203C79.8333 19.6328 79.9688 20.0547 79.9688 20.5859ZM78.9062 24.5C78.9062 23.9948 78.7135 23.6302 78.3281 23.4062C77.9479 23.1823 77.3932 23.0703 76.6641 23.0703H74.4688V25.9453H76.6953C77.4141 25.9453 77.9609 25.8359 78.3359 25.6172C78.7161 25.3932 78.9062 25.0208 78.9062 24.5ZM78.6484 20.7344C78.6484 20.3281 78.5 20.026 78.2031 19.8281C77.9062 19.625 77.4193 19.5234 76.7422 19.5234H74.4688V21.9844H76.5156C77.2188 21.9844 77.75 21.8828 78.1094 21.6797C78.4688 21.4766 78.6484 21.1615 78.6484 20.7344ZM83.6562 18.4375V22.0312H88.4297V18.4375H89.7266V27H88.4297V23.1328H83.6562V27H82.3516V18.4375H83.6562ZM91.125 18.4375H92.5156L94.4062 23.4062C94.5156 23.6979 94.6172 23.9792 94.7109 24.25C94.8047 24.5156 94.888 24.7708 94.9609 25.0156C95.0339 25.2604 95.0911 25.4974 95.1328 25.7266H95.1875C95.2604 25.4661 95.3646 25.125 95.5 24.7031C95.6354 24.276 95.7812 23.8411 95.9375 23.3984L97.7266 18.4375H99.125L95.3984 28.2578C95.2005 28.7839 94.9688 29.2422 94.7031 29.6328C94.4427 30.0234 94.125 30.3229 93.75 30.5312C93.375 30.7448 92.9219 30.8516 92.3906 30.8516C92.1458 30.8516 91.9297 30.8359 91.7422 30.8047C91.5547 30.7786 91.3932 30.7474 91.2578 30.7109V29.6719C91.3724 29.6979 91.5104 29.7214 91.6719 29.7422C91.8385 29.763 92.0104 29.7734 92.1875 29.7734C92.5104 29.7734 92.7891 29.7109 93.0234 29.5859C93.263 29.4661 93.4688 29.2891 93.6406 29.0547C93.8125 28.8203 93.9609 28.5417 94.0859 28.2188L94.5547 27.0156L91.125 18.4375ZM111.5 22.7031C111.5 23.6354 111.349 24.4349 111.047 25.1016C110.75 25.7682 110.323 26.2786 109.766 26.6328C109.208 26.9818 108.542 27.1562 107.766 27.1562C107.042 27.1562 106.409 27 105.867 26.6875C105.331 26.375 104.906 25.9193 104.594 25.3203C104.286 24.7214 104.109 23.9922 104.062 23.1328H101.789V27H100.492V18.4375H101.789V22.0312H104.078C104.151 21.2396 104.344 20.5651 104.656 20.0078C104.969 19.4505 105.391 19.0234 105.922 18.7266C106.453 18.4297 107.078 18.2812 107.797 18.2812C108.547 18.2812 109.198 18.4583 109.75 18.8125C110.307 19.1615 110.737 19.6667 111.039 20.3281C111.346 20.9844 111.5 21.776 111.5 22.7031ZM105.391 22.7031C105.391 23.4219 105.471 24.0339 105.633 24.5391C105.799 25.0391 106.057 25.4219 106.406 25.6875C106.76 25.9479 107.219 26.0781 107.781 26.0781C108.339 26.0781 108.792 25.9479 109.141 25.6875C109.495 25.4271 109.753 25.0469 109.914 24.5469C110.081 24.0417 110.164 23.4271 110.164 22.7031C110.164 21.9896 110.081 21.3854 109.914 20.8906C109.747 20.3958 109.49 20.0208 109.141 19.7656C108.792 19.5052 108.339 19.375 107.781 19.375C107.224 19.375 106.768 19.5052 106.414 19.7656C106.065 20.0208 105.807 20.3958 105.641 20.8906C105.474 21.3854 105.391 21.9896 105.391 22.7031Z" fill="white"/>
</svg>
