<svg width="131" height="36" viewBox="0 0 131 36" fill="none" xmlns="http://www.w3.org/2000/svg">
<rect width="131" height="36" rx="4" fill="#0F0F10" fill-opacity="0.1"/>
<path d="M28.0352 17.9893C28.0352 18.7594 27.9372 19.4613 27.7412 20.0947C27.5452 20.7236 27.2536 21.266 26.8662 21.7217C26.4834 22.1729 26.0072 22.5215 25.4375 22.7676C24.8678 23.0137 24.207 23.1367 23.4551 23.1367C22.6803 23.1367 22.0036 23.0137 21.4248 22.7676C20.8506 22.5215 20.3721 22.1706 19.9893 21.7148C19.611 21.2591 19.3262 20.7145 19.1348 20.0811C18.9479 19.4476 18.8545 18.7458 18.8545 17.9756C18.8545 16.9548 19.0231 16.0592 19.3604 15.2891C19.6976 14.5189 20.208 13.9196 20.8916 13.4912C21.5798 13.0628 22.4411 12.8486 23.4756 12.8486C24.4645 12.8486 25.2962 13.0605 25.9707 13.4844C26.6497 13.9082 27.1624 14.5052 27.5088 15.2754C27.8597 16.041 28.0352 16.9456 28.0352 17.9893ZM20.0781 17.9893C20.0781 18.8369 20.1989 19.5706 20.4404 20.1904C20.682 20.8102 21.0511 21.2887 21.5479 21.626C22.0492 21.9632 22.6849 22.1318 23.4551 22.1318C24.2298 22.1318 24.8633 21.9632 25.3555 21.626C25.8522 21.2887 26.2191 20.8102 26.4561 20.1904C26.693 19.5706 26.8115 18.8369 26.8115 17.9893C26.8115 16.6995 26.5404 15.6924 25.998 14.9678C25.4603 14.2386 24.6195 13.874 23.4756 13.874C22.7008 13.874 22.0628 14.0404 21.5615 14.373C21.0602 14.7057 20.6865 15.1797 20.4404 15.7949C20.1989 16.4056 20.0781 17.137 20.0781 17.9893ZM35.1992 16.4717H32.7314V23H31.6104V16.4717H29.1768V15.5078H35.1992V16.4717ZM41.0508 15.5078H42.3018L39.0684 19.124L42.5615 23H41.2285L37.8242 19.1992V23H36.6826V15.5078H37.8242V19.1445L41.0508 15.5078ZM49.5342 23H48.3789V16.458H46.1025C46.0114 17.6383 45.8952 18.6501 45.7539 19.4932C45.6172 20.3317 45.444 21.0176 45.2344 21.5508C45.0293 22.0794 44.7786 22.4691 44.4824 22.7197C44.1908 22.9658 43.8421 23.0889 43.4365 23.0889C43.3135 23.0889 43.1973 23.082 43.0879 23.0684C42.9785 23.0547 42.8851 23.0319 42.8076 23V22.1387C42.8669 22.1569 42.9284 22.1706 42.9922 22.1797C43.0605 22.1888 43.1312 22.1934 43.2041 22.1934C43.4092 22.1934 43.596 22.109 43.7646 21.9404C43.9378 21.7673 44.0928 21.5075 44.2295 21.1611C44.3708 20.8148 44.4961 20.3773 44.6055 19.8486C44.7148 19.3154 44.8105 18.6888 44.8926 17.9688C44.9792 17.2441 45.0544 16.4238 45.1182 15.5078H49.5342V23ZM53.0068 15.5078V20.2178C53.0068 20.3089 53.0046 20.4274 53 20.5732C52.9954 20.7145 52.9886 20.8672 52.9795 21.0312C52.9704 21.1908 52.9613 21.3457 52.9521 21.4961C52.9476 21.6419 52.9408 21.7627 52.9316 21.8584L57.0195 15.5078H58.4141V23H57.3545V18.4062C57.3545 18.2604 57.3568 18.0736 57.3613 17.8457C57.3659 17.6178 57.3727 17.3945 57.3818 17.1758C57.391 16.9525 57.3978 16.7793 57.4023 16.6562L53.3281 23H51.9268V15.5078H53.0068ZM65.1953 15.5078H66.4463L63.2129 19.124L66.7061 23H65.373L61.9688 19.1992V23H60.8271V15.5078H61.9688V19.1445L65.1953 15.5078ZM69.2012 15.5078V18.6523H73.3779V15.5078H74.5127V23H73.3779V19.6162H69.2012V23H68.0596V15.5078H69.2012ZM75.7363 15.5078H76.9531L78.6074 19.8555C78.7031 20.1107 78.792 20.3568 78.874 20.5938C78.9561 20.8262 79.029 21.0495 79.0928 21.2637C79.1566 21.4779 79.2067 21.6852 79.2432 21.8857H79.291C79.3548 21.6579 79.446 21.3594 79.5645 20.9902C79.6829 20.6165 79.8105 20.236 79.9473 19.8486L81.5127 15.5078H82.7363L79.4756 24.1006C79.3024 24.5609 79.0996 24.9619 78.8672 25.3037C78.6393 25.6455 78.3613 25.9076 78.0332 26.0898C77.7051 26.2767 77.3086 26.3701 76.8438 26.3701C76.6296 26.3701 76.4404 26.3564 76.2764 26.3291C76.1123 26.3063 75.971 26.279 75.8525 26.2471V25.3379C75.9528 25.3607 76.0736 25.3812 76.2148 25.3994C76.3607 25.4176 76.5111 25.4268 76.666 25.4268C76.9486 25.4268 77.1924 25.3721 77.3975 25.2627C77.6071 25.1579 77.7871 25.0029 77.9375 24.7979C78.0879 24.5928 78.2178 24.349 78.3271 24.0664L78.7373 23.0137L75.7363 15.5078ZM89.0391 16.4717H86.5713V23H85.4502V16.4717H83.0166V15.5078H89.0391V16.4717ZM91.6641 18.5977H93.9609C94.599 18.5977 95.1299 18.6774 95.5537 18.8369C95.9775 18.9964 96.2943 19.2334 96.5039 19.5479C96.7181 19.8623 96.8252 20.252 96.8252 20.7168C96.8252 21.1816 96.7204 21.585 96.5107 21.9268C96.3057 22.2686 95.9867 22.5329 95.5537 22.7197C95.1253 22.9066 94.5716 23 93.8926 23H90.5225V15.5078H91.6641V18.5977ZM95.6836 20.7715C95.6836 20.3112 95.5195 19.9922 95.1914 19.8145C94.8678 19.6322 94.4144 19.541 93.8311 19.541H91.6641V22.0771H93.8379C94.3848 22.0771 94.8291 21.9769 95.1709 21.7764C95.5127 21.5713 95.6836 21.2363 95.6836 20.7715ZM101.781 23.1367C101.107 23.1367 100.512 22.9977 99.9971 22.7197C99.4821 22.4417 99.0811 22.0179 98.7939 21.4482C98.5068 20.8786 98.3633 20.1608 98.3633 19.2949C98.3633 18.388 98.5137 17.6475 98.8145 17.0732C99.1198 16.4945 99.5391 16.0661 100.072 15.7881C100.605 15.5101 101.212 15.3711 101.891 15.3711C102.264 15.3711 102.624 15.4098 102.971 15.4873C103.322 15.5602 103.609 15.6536 103.832 15.7676L103.49 16.7178C103.262 16.6266 102.998 16.5446 102.697 16.4717C102.401 16.3988 102.123 16.3623 101.863 16.3623C101.344 16.3623 100.911 16.474 100.564 16.6973C100.223 16.9206 99.9652 17.2487 99.792 17.6816C99.6234 18.1146 99.5391 18.6478 99.5391 19.2812C99.5391 19.8874 99.6211 20.4046 99.7852 20.833C99.9538 21.2614 100.202 21.5895 100.53 21.8174C100.863 22.0407 101.278 22.1523 101.774 22.1523C102.171 22.1523 102.529 22.1113 102.848 22.0293C103.167 21.9427 103.456 21.8424 103.716 21.7285V22.7402C103.465 22.8678 103.185 22.9658 102.875 23.0342C102.57 23.1025 102.205 23.1367 101.781 23.1367ZM105.855 23H104.529L106.689 19.8418C106.375 19.7734 106.083 19.6572 105.814 19.4932C105.546 19.3245 105.327 19.0944 105.158 18.8027C104.994 18.5111 104.912 18.1488 104.912 17.7158C104.912 16.9958 105.151 16.4489 105.63 16.0752C106.113 15.6969 106.749 15.5078 107.537 15.5078H110.853V23H109.718V19.9922H107.817L105.855 23ZM106.013 17.7227C106.013 18.1693 106.172 18.502 106.491 18.7207C106.81 18.9349 107.266 19.042 107.858 19.042H109.718V16.458H107.66C107.077 16.458 106.655 16.5765 106.396 16.8135C106.14 17.0459 106.013 17.349 106.013 17.7227Z" fill="#0F0F10"/>
</svg>
