<svg width="172" height="36" viewBox="0 0 172 36" fill="none" xmlns="http://www.w3.org/2000/svg">
<rect width="172" height="36" rx="4" fill="#0F0F10"/>
<path d="M23.6396 13.8877C23.0882 13.8877 22.5915 13.9834 22.1494 14.1748C21.7119 14.3617 21.3382 14.6351 21.0283 14.9951C20.723 15.3506 20.4883 15.7812 20.3242 16.2871C20.1602 16.793 20.0781 17.3626 20.0781 17.9961C20.0781 18.8346 20.208 19.5638 20.4678 20.1836C20.7321 20.7988 21.124 21.2751 21.6436 21.6123C22.1676 21.9495 22.8216 22.1182 23.6055 22.1182C24.0521 22.1182 24.4714 22.0817 24.8633 22.0088C25.2598 21.9313 25.6449 21.8356 26.0186 21.7217V22.7334C25.654 22.8701 25.2712 22.9704 24.8701 23.0342C24.4691 23.1025 23.9928 23.1367 23.4414 23.1367C22.4251 23.1367 21.5752 22.9271 20.8916 22.5078C20.2126 22.084 19.7021 21.487 19.3604 20.7168C19.0231 19.9466 18.8545 19.0374 18.8545 17.9893C18.8545 17.2327 18.9593 16.5423 19.1689 15.918C19.3831 15.2891 19.693 14.7467 20.0986 14.291C20.5088 13.8353 21.0101 13.4844 21.6025 13.2383C22.1995 12.9876 22.8831 12.8623 23.6533 12.8623C24.1592 12.8623 24.6468 12.9124 25.1162 13.0127C25.5856 13.113 26.0094 13.2565 26.3877 13.4434L25.9229 14.4277C25.6038 14.2819 25.2529 14.1566 24.8701 14.0518C24.4919 13.9424 24.0817 13.8877 23.6396 13.8877ZM35.9238 15.5078V23H34.8984V18.1191C34.8984 17.9186 34.903 17.7158 34.9121 17.5107C34.9258 17.3011 34.9417 17.0915 34.96 16.8818H34.9189L32.4307 23H31.4668L29.04 16.8818H28.999C29.0127 17.0915 29.0218 17.3011 29.0264 17.5107C29.0355 17.7158 29.04 17.9323 29.04 18.1602V23H28.0078V15.5078H29.5322L31.9521 21.6328L34.4062 15.5078H35.9238ZM44.7422 19.2402C44.7422 19.8555 44.6624 20.4046 44.5029 20.8877C44.3434 21.3708 44.1133 21.7786 43.8125 22.1113C43.5117 22.444 43.1471 22.6992 42.7188 22.877C42.2949 23.0501 41.8141 23.1367 41.2764 23.1367C40.7751 23.1367 40.3148 23.0501 39.8955 22.877C39.4808 22.6992 39.1208 22.444 38.8154 22.1113C38.5146 21.7786 38.2799 21.3708 38.1113 20.8877C37.9473 20.4046 37.8652 19.8555 37.8652 19.2402C37.8652 18.4199 38.0042 17.7227 38.2822 17.1484C38.5602 16.5697 38.9567 16.1299 39.4717 15.8291C39.9912 15.5238 40.6087 15.3711 41.3242 15.3711C42.0078 15.3711 42.6048 15.5238 43.1152 15.8291C43.6302 16.1344 44.029 16.5765 44.3115 17.1553C44.5986 17.7295 44.7422 18.4245 44.7422 19.2402ZM39.041 19.2402C39.041 19.8418 39.1208 20.3636 39.2803 20.8057C39.4398 21.2477 39.6859 21.5895 40.0186 21.8311C40.3512 22.0726 40.7796 22.1934 41.3037 22.1934C41.8232 22.1934 42.2493 22.0726 42.582 21.8311C42.9193 21.5895 43.1676 21.2477 43.3271 20.8057C43.4867 20.3636 43.5664 19.8418 43.5664 19.2402C43.5664 18.6432 43.4867 18.1283 43.3271 17.6953C43.1676 17.2578 42.9215 16.9206 42.5889 16.6836C42.2562 16.4466 41.8255 16.3281 41.2969 16.3281C40.5176 16.3281 39.9456 16.5856 39.5811 17.1006C39.221 17.6156 39.041 18.3288 39.041 19.2402ZM51.8105 16.4717H49.3428V23H48.2217V16.4717H45.7881V15.5078H51.8105V16.4717ZM56.8145 15.3711C57.7487 15.3711 58.4938 15.6924 59.0498 16.335C59.6058 16.9775 59.8838 17.9437 59.8838 19.2334C59.8838 20.0856 59.7562 20.8011 59.501 21.3799C59.2458 21.9587 58.8857 22.3962 58.4209 22.6924C57.9606 22.9886 57.416 23.1367 56.7871 23.1367C56.3906 23.1367 56.042 23.0843 55.7412 22.9795C55.4404 22.8747 55.1829 22.7334 54.9688 22.5557C54.7546 22.3779 54.5768 22.1842 54.4355 21.9746H54.3535C54.3672 22.1523 54.3831 22.3665 54.4014 22.6172C54.4242 22.8678 54.4355 23.0866 54.4355 23.2734V26.3496H53.2939V15.5078H54.2305L54.3809 16.6152H54.4355C54.5814 16.3874 54.7591 16.18 54.9688 15.9932C55.1784 15.8018 55.4336 15.6514 55.7344 15.542C56.0397 15.4281 56.3997 15.3711 56.8145 15.3711ZM56.6162 16.3281C56.0967 16.3281 55.6774 16.4284 55.3584 16.6289C55.0439 16.8294 54.8138 17.1302 54.668 17.5312C54.5221 17.9277 54.4447 18.4268 54.4355 19.0283V19.2471C54.4355 19.8805 54.5039 20.416 54.6406 20.8535C54.7819 21.291 55.012 21.6237 55.3311 21.8516C55.6546 22.0794 56.0876 22.1934 56.6299 22.1934C57.0947 22.1934 57.4821 22.068 57.792 21.8174C58.1019 21.5667 58.332 21.2181 58.4824 20.7715C58.6374 20.3203 58.7148 19.8031 58.7148 19.2197C58.7148 18.3356 58.5417 17.6338 58.1953 17.1143C57.8535 16.5902 57.3271 16.3281 56.6162 16.3281ZM64.751 15.3711C65.389 15.3711 65.9359 15.5124 66.3916 15.7949C66.8473 16.0775 67.196 16.474 67.4375 16.9844C67.679 17.4902 67.7998 18.0827 67.7998 18.7617V19.4658H62.625C62.6387 20.3454 62.8574 21.0153 63.2812 21.4756C63.7051 21.9359 64.3021 22.166 65.0723 22.166C65.5462 22.166 65.9655 22.1227 66.3301 22.0361C66.6947 21.9495 67.0729 21.8219 67.4648 21.6533V22.6514C67.0866 22.82 66.7106 22.943 66.3369 23.0205C65.9678 23.098 65.5303 23.1367 65.0244 23.1367C64.3044 23.1367 63.6755 22.9909 63.1377 22.6992C62.6045 22.403 62.1898 21.9701 61.8936 21.4004C61.5973 20.8307 61.4492 20.1335 61.4492 19.3086C61.4492 18.502 61.5837 17.8047 61.8525 17.2168C62.126 16.6243 62.5088 16.1686 63.001 15.8496C63.4977 15.5306 64.0811 15.3711 64.751 15.3711ZM64.7373 16.3008C64.1312 16.3008 63.6481 16.499 63.2881 16.8955C62.9281 17.292 62.7139 17.8457 62.6455 18.5566H66.6104C66.6058 18.11 66.5352 17.7181 66.3984 17.3809C66.2663 17.0391 66.0635 16.7747 65.79 16.5879C65.5166 16.3965 65.1657 16.3008 64.7373 16.3008ZM74.834 16.4717H72.3662V23H71.2451V16.4717H68.8115V15.5078H74.834V16.4717ZM77.459 18.5977H79.7559C80.3939 18.5977 80.9248 18.6774 81.3486 18.8369C81.7725 18.9964 82.0892 19.2334 82.2988 19.5479C82.513 19.8623 82.6201 20.252 82.6201 20.7168C82.6201 21.1816 82.5153 21.585 82.3057 21.9268C82.1006 22.2686 81.7816 22.5329 81.3486 22.7197C80.9202 22.9066 80.3665 23 79.6875 23H76.3174V15.5078H77.459V18.5977ZM81.4785 20.7715C81.4785 20.3112 81.3145 19.9922 80.9863 19.8145C80.6628 19.6322 80.2093 19.541 79.626 19.541H77.459V22.0771H79.6328C80.1797 22.0771 80.624 21.9769 80.9658 21.7764C81.3076 21.5713 81.4785 21.2363 81.4785 20.7715ZM94.166 17.3877C94.166 17.8571 94.0293 18.224 93.7559 18.4883C93.4824 18.748 93.1292 18.9235 92.6963 19.0146V19.0693C93.1657 19.1331 93.569 19.3018 93.9062 19.5752C94.248 19.8441 94.4189 20.2565 94.4189 20.8125C94.4189 21.2409 94.3164 21.6191 94.1113 21.9473C93.9062 22.2754 93.585 22.5329 93.1475 22.7197C92.71 22.9066 92.1403 23 91.4385 23H88.2119V15.5078H91.4111C91.9489 15.5078 92.4229 15.5693 92.833 15.6924C93.2477 15.8109 93.5736 16.0068 93.8105 16.2803C94.0475 16.5537 94.166 16.9229 94.166 17.3877ZM93.2363 20.8125C93.2363 20.3704 93.0677 20.0514 92.7305 19.8555C92.3978 19.6595 91.9124 19.5615 91.2744 19.5615H89.3535V22.0771H91.3018C91.9307 22.0771 92.4092 21.9814 92.7373 21.79C93.07 21.5941 93.2363 21.2682 93.2363 20.8125ZM93.0107 17.5176C93.0107 17.1621 92.8809 16.8978 92.6211 16.7246C92.3613 16.5469 91.9352 16.458 91.3428 16.458H89.3535V18.6113H91.1445C91.7598 18.6113 92.2246 18.5225 92.5391 18.3447C92.8535 18.167 93.0107 17.8913 93.0107 17.5176ZM99.0537 15.3848C99.9469 15.3848 100.61 15.5853 101.043 15.9863C101.476 16.3874 101.692 17.0277 101.692 17.9072V23H100.865L100.646 21.8926H100.592C100.382 22.166 100.163 22.3962 99.9355 22.583C99.7077 22.7653 99.4434 22.9043 99.1426 23C98.8464 23.0911 98.4818 23.1367 98.0488 23.1367C97.5931 23.1367 97.1875 23.057 96.832 22.8975C96.4811 22.738 96.2031 22.4964 95.998 22.1729C95.7975 21.8493 95.6973 21.4391 95.6973 20.9424C95.6973 20.195 95.9935 19.6208 96.5859 19.2197C97.1784 18.8187 98.0807 18.5999 99.293 18.5635L100.585 18.5088V18.0508C100.585 17.4036 100.446 16.9502 100.168 16.6904C99.89 16.4307 99.498 16.3008 98.9922 16.3008C98.6003 16.3008 98.2266 16.3577 97.8711 16.4717C97.5156 16.5856 97.1784 16.7201 96.8594 16.875L96.5107 16.0137C96.848 15.8405 97.2354 15.6924 97.6729 15.5693C98.1104 15.4463 98.5706 15.3848 99.0537 15.3848ZM100.571 19.3086L99.4297 19.3564C98.4954 19.3929 97.8369 19.5456 97.4541 19.8145C97.0713 20.0833 96.8799 20.4639 96.8799 20.9561C96.8799 21.3844 97.0098 21.7012 97.2695 21.9062C97.5293 22.1113 97.8734 22.2139 98.3018 22.2139C98.9671 22.2139 99.5117 22.0293 99.9355 21.6602C100.359 21.291 100.571 20.7373 100.571 19.999V19.3086ZM108.398 15.5078H109.649L106.416 19.124L109.909 23H108.576L105.172 19.1992V23H104.03V15.5078H105.172V19.1445L108.398 15.5078ZM114.065 15.3848C114.959 15.3848 115.622 15.5853 116.055 15.9863C116.488 16.3874 116.704 17.0277 116.704 17.9072V23H115.877L115.658 21.8926H115.604C115.394 22.166 115.175 22.3962 114.947 22.583C114.719 22.7653 114.455 22.9043 114.154 23C113.858 23.0911 113.493 23.1367 113.061 23.1367C112.605 23.1367 112.199 23.057 111.844 22.8975C111.493 22.738 111.215 22.4964 111.01 22.1729C110.809 21.8493 110.709 21.4391 110.709 20.9424C110.709 20.195 111.005 19.6208 111.598 19.2197C112.19 18.8187 113.092 18.5999 114.305 18.5635L115.597 18.5088V18.0508C115.597 17.4036 115.458 16.9502 115.18 16.6904C114.902 16.4307 114.51 16.3008 114.004 16.3008C113.612 16.3008 113.238 16.3577 112.883 16.4717C112.527 16.5856 112.19 16.7201 111.871 16.875L111.522 16.0137C111.86 15.8405 112.247 15.6924 112.685 15.5693C113.122 15.4463 113.582 15.3848 114.065 15.3848ZM115.583 19.3086L114.441 19.3564C113.507 19.3929 112.849 19.5456 112.466 19.8145C112.083 20.0833 111.892 20.4639 111.892 20.9561C111.892 21.3844 112.021 21.7012 112.281 21.9062C112.541 22.1113 112.885 22.2139 113.313 22.2139C113.979 22.2139 114.523 22.0293 114.947 21.6602C115.371 21.291 115.583 20.7373 115.583 19.999V19.3086ZM120.184 15.5078V18.6523H124.36V15.5078H125.495V23H124.36V19.6162H120.184V23H119.042V15.5078H120.184ZM130.902 23.1367C130.228 23.1367 129.633 22.9977 129.118 22.7197C128.603 22.4417 128.202 22.0179 127.915 21.4482C127.628 20.8786 127.484 20.1608 127.484 19.2949C127.484 18.388 127.635 17.6475 127.936 17.0732C128.241 16.4945 128.66 16.0661 129.193 15.7881C129.727 15.5101 130.333 15.3711 131.012 15.3711C131.385 15.3711 131.745 15.4098 132.092 15.4873C132.443 15.5602 132.73 15.6536 132.953 15.7676L132.611 16.7178C132.383 16.6266 132.119 16.5446 131.818 16.4717C131.522 16.3988 131.244 16.3623 130.984 16.3623C130.465 16.3623 130.032 16.474 129.686 16.6973C129.344 16.9206 129.086 17.2487 128.913 17.6816C128.744 18.1146 128.66 18.6478 128.66 19.2812C128.66 19.8874 128.742 20.4046 128.906 20.833C129.075 21.2614 129.323 21.5895 129.651 21.8174C129.984 22.0407 130.399 22.1523 130.896 22.1523C131.292 22.1523 131.65 22.1113 131.969 22.0293C132.288 21.9427 132.577 21.8424 132.837 21.7285V22.7402C132.586 22.8678 132.306 22.9658 131.996 23.0342C131.691 23.1025 131.326 23.1367 130.902 23.1367ZM135.694 15.5078V20.2178C135.694 20.3089 135.692 20.4274 135.688 20.5732C135.683 20.7145 135.676 20.8672 135.667 21.0312C135.658 21.1908 135.649 21.3457 135.64 21.4961C135.635 21.6419 135.628 21.7627 135.619 21.8584L139.707 15.5078H141.102V23H140.042V18.4062C140.042 18.2604 140.044 18.0736 140.049 17.8457C140.053 17.6178 140.06 17.3945 140.069 17.1758C140.078 16.9525 140.085 16.7793 140.09 16.6562L136.016 23H134.614V15.5078H135.694ZM153.146 19.2402C153.146 20.056 153.014 20.7555 152.75 21.3389C152.49 21.9222 152.117 22.3688 151.629 22.6787C151.141 22.984 150.558 23.1367 149.879 23.1367C149.245 23.1367 148.692 23 148.218 22.7266C147.748 22.4531 147.377 22.0544 147.104 21.5303C146.835 21.0062 146.68 20.3682 146.639 19.6162H144.649V23H143.515V15.5078H144.649V18.6523H146.652C146.716 17.9596 146.885 17.3695 147.158 16.8818C147.432 16.3942 147.801 16.0205 148.266 15.7607C148.73 15.501 149.277 15.3711 149.906 15.3711C150.562 15.3711 151.132 15.526 151.615 15.8359C152.103 16.1413 152.479 16.5833 152.743 17.1621C153.012 17.7363 153.146 18.429 153.146 19.2402ZM147.801 19.2402C147.801 19.8691 147.871 20.4046 148.013 20.8467C148.159 21.2842 148.384 21.6191 148.689 21.8516C148.999 22.0794 149.4 22.1934 149.893 22.1934C150.38 22.1934 150.777 22.0794 151.082 21.8516C151.392 21.6237 151.618 21.291 151.759 20.8535C151.905 20.4115 151.978 19.8737 151.978 19.2402C151.978 18.6159 151.905 18.0872 151.759 17.6543C151.613 17.2214 151.387 16.8932 151.082 16.6699C150.777 16.4421 150.38 16.3281 149.893 16.3281C149.405 16.3281 149.006 16.4421 148.696 16.6699C148.391 16.8932 148.165 17.2214 148.02 17.6543C147.874 18.0872 147.801 18.6159 147.801 19.2402Z" fill="white"/>
</svg>
