<svg width="86" height="22" viewBox="0 0 86 22" fill="none" xmlns="http://www.w3.org/2000/svg">
<path d="M1.33984 6.00586H4.23828C5.50977 6.00586 6.4668 6.19271 7.10938 6.56641C7.75195 6.9401 8.07324 7.5804 8.07324 8.4873C8.07324 8.87467 8.0026 9.22103 7.86133 9.52637C7.72005 9.83171 7.51497 10.0846 7.24609 10.2852C6.97721 10.4857 6.64681 10.6224 6.25488 10.6953V10.7637C6.66504 10.832 7.02962 10.9551 7.34863 11.1328C7.66764 11.3105 7.91829 11.5635 8.10059 11.8916C8.28743 12.2152 8.38086 12.6322 8.38086 13.1426C8.38086 13.7533 8.2373 14.2728 7.9502 14.7012C7.66309 15.125 7.25521 15.4486 6.72656 15.6719C6.20247 15.8906 5.57812 16 4.85352 16H1.33984V6.00586ZM2.74121 10.21H4.48438C5.29102 10.21 5.84928 10.0778 6.15918 9.81348C6.46908 9.54915 6.62402 9.16406 6.62402 8.6582C6.62402 8.13411 6.43945 7.75814 6.07031 7.53027C5.70117 7.29785 5.11556 7.18164 4.31348 7.18164H2.74121V10.21ZM2.74121 11.3652V14.8174H4.64844C5.47331 14.8174 6.05436 14.6556 6.3916 14.332C6.7334 14.0085 6.9043 13.5732 6.9043 13.0264C6.9043 12.68 6.82682 12.3838 6.67188 12.1377C6.52148 11.887 6.27539 11.6956 5.93359 11.5635C5.5918 11.4313 5.13151 11.3652 4.55273 11.3652H2.74121ZM13.1865 8.33691C14.1162 8.33691 14.8112 8.54427 15.2715 8.95898C15.7318 9.36914 15.9619 10.0186 15.9619 10.9072V16H14.9775L14.7109 14.9062H14.6562C14.4466 15.1797 14.2279 15.4076 14 15.5898C13.7721 15.7721 13.5078 15.9089 13.207 16C12.9108 16.0911 12.5485 16.1367 12.1201 16.1367C11.6644 16.1367 11.2588 16.0547 10.9033 15.8906C10.5479 15.7266 10.2676 15.4805 10.0625 15.1523C9.86198 14.8197 9.76172 14.3981 9.76172 13.8877C9.76172 13.1221 10.0557 12.541 10.6436 12.1445C11.2314 11.748 12.1224 11.5316 13.3164 11.4951L14.6152 11.4404V11.0166C14.6152 10.4287 14.4831 10.014 14.2188 9.77246C13.959 9.53092 13.5944 9.41016 13.125 9.41016C12.7376 9.41016 12.3662 9.46712 12.0107 9.58105C11.6553 9.69043 11.3135 9.82259 10.9854 9.97754L10.5479 8.97949C10.9033 8.7972 11.3066 8.64453 11.7578 8.52148C12.2135 8.39844 12.6898 8.33691 13.1865 8.33691ZM14.6016 12.3428L13.5488 12.3906C12.6784 12.4225 12.0654 12.5684 11.71 12.8281C11.359 13.0833 11.1836 13.4411 11.1836 13.9014C11.1836 14.3024 11.3044 14.5964 11.5459 14.7832C11.7874 14.9701 12.1064 15.0635 12.5029 15.0635C13.1136 15.0635 13.6149 14.8926 14.0068 14.5508C14.4033 14.2044 14.6016 13.694 14.6016 13.0195V12.3428ZM22.791 8.4668H24.3018L21.123 12.0967L24.5615 16H22.9756L19.6396 12.1787V16H18.2588V8.4668H19.6396V12.124L22.791 8.4668ZM28.7451 8.33691C29.6748 8.33691 30.3698 8.54427 30.8301 8.95898C31.2904 9.36914 31.5205 10.0186 31.5205 10.9072V16H30.5361L30.2695 14.9062H30.2148C30.0052 15.1797 29.7865 15.4076 29.5586 15.5898C29.3307 15.7721 29.0664 15.9089 28.7656 16C28.4694 16.0911 28.1071 16.1367 27.6787 16.1367C27.223 16.1367 26.8174 16.0547 26.4619 15.8906C26.1064 15.7266 25.8262 15.4805 25.6211 15.1523C25.4206 14.8197 25.3203 14.3981 25.3203 13.8877C25.3203 13.1221 25.6143 12.541 26.2021 12.1445C26.79 11.748 27.681 11.5316 28.875 11.4951L30.1738 11.4404V11.0166C30.1738 10.4287 30.0417 10.014 29.7773 9.77246C29.5176 9.53092 29.153 9.41016 28.6836 9.41016C28.2962 9.41016 27.9248 9.46712 27.5693 9.58105C27.2139 9.69043 26.8721 9.82259 26.5439 9.97754L26.1064 8.97949C26.4619 8.7972 26.8652 8.64453 27.3164 8.52148C27.7721 8.39844 28.2484 8.33691 28.7451 8.33691ZM30.1602 12.3428L29.1074 12.3906C28.237 12.4225 27.624 12.5684 27.2686 12.8281C26.9176 13.0833 26.7422 13.4411 26.7422 13.9014C26.7422 14.3024 26.863 14.5964 27.1045 14.7832C27.346 14.9701 27.665 15.0635 28.0615 15.0635C28.6722 15.0635 29.1735 14.8926 29.5654 14.5508C29.9619 14.2044 30.1602 13.694 30.1602 13.0195V12.3428ZM35.1982 8.4668V11.5635H39.0605V8.4668H40.4277V16H39.0605V12.6709H35.1982V16H33.8174V8.4668H35.1982ZM45.8145 16.1367C45.1217 16.1367 44.5156 15.9977 43.9961 15.7197C43.4766 15.4417 43.0732 15.0179 42.7861 14.4482C42.5036 13.874 42.3623 13.1494 42.3623 12.2744C42.3623 11.363 42.515 10.6178 42.8203 10.0391C43.1257 9.45573 43.5472 9.02507 44.085 8.74707C44.6273 8.46908 45.2471 8.33008 45.9443 8.33008C46.3545 8.33008 46.7373 8.37109 47.0928 8.45312C47.4528 8.53516 47.7536 8.6377 47.9951 8.76074L47.585 9.875C47.3298 9.77474 47.054 9.68587 46.7578 9.6084C46.4661 9.53092 46.1882 9.49219 45.9238 9.49219C45.4408 9.49219 45.0397 9.59928 44.7207 9.81348C44.4062 10.0231 44.1693 10.333 44.0098 10.7432C43.8503 11.1533 43.7705 11.6592 43.7705 12.2607C43.7705 12.8441 43.848 13.3385 44.0029 13.7441C44.1624 14.1452 44.3949 14.4505 44.7002 14.6602C45.0101 14.8698 45.3952 14.9746 45.8555 14.9746C46.2611 14.9746 46.6257 14.929 46.9492 14.8379C47.2728 14.7467 47.5713 14.6305 47.8447 14.4893V15.6992C47.5804 15.8451 47.2887 15.9544 46.9697 16.0273C46.6507 16.1003 46.2656 16.1367 45.8145 16.1367ZM50.9414 8.4668V12.7598C50.9414 12.8646 50.9368 13.0013 50.9277 13.1699C50.9232 13.334 50.9141 13.5072 50.9004 13.6895C50.8913 13.8717 50.8822 14.0426 50.873 14.2021C50.8639 14.3617 50.8548 14.4847 50.8457 14.5713L54.79 8.4668H56.4648V16H55.166V11.7891C55.166 11.6204 55.1683 11.4131 55.1729 11.167C55.182 10.9163 55.1934 10.6748 55.207 10.4424C55.2207 10.21 55.2298 10.0299 55.2344 9.90234L51.3037 16H49.6221V8.4668H50.9414ZM60.1426 8.4668V12.7598C60.1426 12.8646 60.138 13.0013 60.1289 13.1699C60.1243 13.334 60.1152 13.5072 60.1016 13.6895C60.0924 13.8717 60.0833 14.0426 60.0742 14.2021C60.0651 14.3617 60.056 14.4847 60.0469 14.5713L63.9912 8.4668H65.666V16H64.3672V11.7891C64.3672 11.6204 64.3695 11.4131 64.374 11.167C64.3831 10.9163 64.3945 10.6748 64.4082 10.4424C64.4219 10.21 64.431 10.0299 64.4355 9.90234L60.5049 16H58.8232V8.4668H60.1426ZM73.2266 16H71.832V6.00586H77.4375V7.20898H73.2266V10.5996H77.1777V11.7959H73.2266V16ZM84.7861 16H79.1738V6.00586H84.7861V7.20898H80.5752V10.1826H84.5332V11.3721H80.5752V14.79H84.7861V16Z" fill="#0F0F10" fill-opacity="0.5"/>
</svg>
